<?xml version="1.0" encoding="utf-8"?>
<!-- Generator: Adobe Illustrator 19.0.0, SVG Export Plug-In . SVG Version: 6.00 Build 0)  -->
<svg version="1.0" id="Layer_1" xmlns="http://www.w3.org/2000/svg" xmlns:xlink="http://www.w3.org/1999/xlink" x="0px" y="0px"
	 viewBox="0 0 136 51" style="enable-background:new 0 0 136 51;" xml:space="preserve">
<style type="text/css">
	.st0{fill:#444445;}
	.st1{fill:#FFFFFF;}
	.st2{fill:#F1623E;}
</style>
<g id="XMLID_2_">
	<rect id="XMLID_22_" x="0.8" y="0.5" class="st0" width="6.7" height="48.1"/>
	
		<rect id="XMLID_21_" x="36.2" y="24.3" transform="matrix(0.7109 -0.7033 0.7033 0.7109 -15.509 38.8619)" class="st0" width="6.6" height="28"/>
	<path id="XMLID_20_" class="st1" d="M133.5,31.2c-3.4,0-6.2-2.8-6.2-6.2s2.8-6.2,6.2-6.2c0,0,0.1,0,0.1,0l0-18.3L61,0.6l-9.8,9.4
		c5,7,6,16.5,1.8,24.7c-0.6,1.1-1.2,2.2-1.9,3.1c0,0.3,0,0.5,0,0.5L61,48.4l72.6,0L133.5,31.2C133.5,31.2,133.5,31.2,133.5,31.2z"/>
	<g id="XMLID_17_">
		<path id="XMLID_19_" class="st2" d="M25.9,7.7c9.3,0,16.8,7.5,16.8,16.8c0,1.8-0.3,3.5-0.8,5.1l5.5,5.6c1.6-3.2,2.5-6.9,2.5-10.7
			c0-13.3-10.8-24.1-24.1-24.1c-5.6,0-10.7,1.9-14.8,5.1v11C13.9,11.3,19.5,7.7,25.9,7.7z"/>
		<path id="XMLID_18_" class="st2" d="M31.2,40.4c-1.7,0.6-3.5,0.9-5.4,0.9c-6.4,0-12-3.6-14.8-8.8v11c4.1,3.2,9.2,5.1,14.8,5.1
			c3.9,0,7.6-0.9,10.9-2.6L31.2,40.4z"/>
	</g>
	<g id="XMLID_4_">
		<path id="XMLID_15_" class="st0" d="M60.1,33.8l1.6-0.3c0,0.6,0.1,1.1,0.2,1.6c0.1,0.5,0.4,1,0.7,1.4c0.3,0.4,0.8,0.7,1.3,0.9
			c0.5,0.2,1.2,0.3,1.9,0.3c0.9,0,1.6-0.1,2.2-0.4c0.5-0.3,1-0.7,1.2-1.2c0.3-0.5,0.5-1.1,0.6-1.7c0.1-0.7,0.1-1.3,0.1-2
			c0-0.9,0-1.6-0.1-2.1c-0.1-0.6-0.3-1.1-0.5-1.5c-0.3-0.4-0.7-0.8-1.2-1.2c-0.5-0.4-1.3-0.7-2.2-1.2c-1.2-0.5-2.2-1.1-2.9-1.6
			c-0.7-0.5-1.3-1-1.6-1.5c-0.4-0.5-0.6-1.1-0.7-1.6c-0.1-0.6-0.2-1.2-0.2-1.9c0-0.9,0.1-1.8,0.3-2.5c0.2-0.8,0.6-1.4,1-2
			c0.5-0.6,1-1,1.7-1.3c0.7-0.3,1.5-0.5,2.5-0.5c1.1,0,2,0.2,2.7,0.5c0.7,0.3,1.3,0.7,1.7,1.2c0.4,0.5,0.7,1.1,0.9,1.7
			c0.2,0.6,0.3,1.2,0.3,1.8l-1.6,0.4c0-0.6-0.1-1.1-0.2-1.6c-0.1-0.5-0.4-0.9-0.7-1.3c-0.3-0.4-0.7-0.7-1.2-0.9
			c-0.5-0.2-1.2-0.3-1.9-0.3c-0.8,0-1.5,0.2-2,0.5c-0.5,0.3-0.9,0.7-1.2,1.2c-0.3,0.5-0.5,1-0.6,1.6c-0.1,0.6-0.1,1.1-0.1,1.6
			c0,0.6,0.1,1.2,0.2,1.6c0.1,0.5,0.3,0.9,0.7,1.3c0.3,0.4,0.8,0.8,1.5,1.2c0.6,0.4,1.5,0.8,2.5,1.3c1.1,0.5,1.9,0.9,2.6,1.4
			c0.6,0.5,1.1,1,1.4,1.5c0.3,0.5,0.5,1.2,0.6,1.8c0.1,0.7,0.1,1.5,0.1,2.4c0,1-0.1,2-0.3,2.8c-0.2,0.8-0.5,1.6-0.9,2.2
			c-0.4,0.6-1,1-1.7,1.4c-0.7,0.3-1.6,0.5-2.7,0.5c-1,0-1.9-0.1-2.6-0.4c-0.7-0.3-1.3-0.7-1.7-1.1c-0.5-0.5-0.8-1-1-1.7
			C60.3,35.3,60.2,34.6,60.1,33.8z"/>
		<path id="XMLID_13_" class="st0" d="M72.8,15.2v-1.4h11.2v1.4h-4.8v23.7h-1.6V15.2H72.8z"/>
		<path id="XMLID_10_" class="st0" d="M85.8,33.6V19.4c0-1.8,0.5-3.3,1.4-4.3c1-1.1,2.4-1.6,4.2-1.6c1.9,0,3.3,0.5,4.2,1.5
			c0.9,1,1.4,2.4,1.4,4.3v14c0,2-0.5,3.4-1.5,4.4c-1,1-2.4,1.5-4.1,1.5c-1.7,0-3.1-0.5-4.1-1.4C86.3,36.8,85.8,35.4,85.8,33.6z
			 M87.4,33.6c0,1.2,0.4,2.2,1.1,3c0.7,0.8,1.7,1.1,3,1.1c1.4,0,2.4-0.4,3.1-1.2c0.7-0.8,1-1.8,1-3.2V19.2c0-1.2-0.4-2.3-1.1-3
			c-0.7-0.8-1.7-1.2-3-1.2c-0.7,0-1.3,0.1-1.8,0.4c-0.5,0.3-0.9,0.6-1.3,1c-0.3,0.4-0.6,0.9-0.8,1.5c-0.2,0.6-0.3,1.1-0.3,1.7V33.6z
			"/>
		<path id="XMLID_7_" class="st0" d="M100.6,38.9V13.7h4.9c1.2,0,2.2,0.2,3,0.5c0.8,0.3,1.5,0.7,2,1.3s0.8,1.3,1,2.1
			c0.2,0.8,0.3,1.8,0.3,2.9c0,0.5,0,0.9-0.1,1.3c-0.1,1.3-0.5,2.4-1.1,3.3c-0.6,0.9-1.5,1.5-2.7,1.9c0.3,0.9,0.6,1.9,1,2.9
			c0.3,1,0.7,2,1,3.1c0.3,1,0.7,2.1,1,3.1c0.3,1,0.7,2,0.9,2.9h-1.7l-3.8-11.6c-0.2,0-0.4,0-0.7,0s-0.5,0-0.7,0h-2.9v11.6H100.6z
			 M102.2,26h3.1c1.8,0,3.1-0.4,3.8-1.3c0.8-0.9,1.2-2.3,1.2-4.2c0-0.8-0.1-1.6-0.2-2.2c-0.2-0.7-0.4-1.2-0.8-1.7
			c-0.4-0.5-0.9-0.8-1.5-1c-0.6-0.2-1.4-0.4-2.4-0.4h-3.1V26z"/>
		<path id="XMLID_5_" class="st0" d="M115,38.9V13.7h10.3v1.4h-8.7v10.1h7.7v1.4h-7.7v10.8h8.7v1.4H115z"/>
	</g>
</g>
</svg>
